<svg version="1.1" id="Layer_1" xmlns="http://www.w3.org/2000/svg" xmlns:xlink="http://www.w3.org/1999/xlink" x="0px" y="0px"
	 width="100%" viewBox="0 0 403 75" enable-background="new 0 0 403 75" xml:space="preserve">
<path fill="#FBFBFB" opacity="1.000000" stroke="none" 
	d="
M159.000000,76.000000 
	C109.312439,76.000000 59.624878,76.000000 9.372135,75.758926 
	C8.537709,75.073784 8.268463,74.629730 8.458708,74.122330 
	C12.577556,74.058990 16.236914,74.058990 19.860445,74.058990 
	C19.860445,71.900558 19.860445,70.444679 19.924088,68.555222 
	C19.949247,66.079163 19.910763,64.036682 19.941704,61.560745 
	C19.961241,59.082169 19.911350,57.037048 19.930603,54.655159 
	C20.068172,53.237320 20.136600,52.156242 20.241617,50.497070 
	C25.165642,55.972160 29.674919,60.986092 34.297108,66.307953 
	C37.159332,69.079391 39.602715,73.042175 42.724716,73.679222 
	C48.382519,74.833710 54.444710,74.006401 61.790115,74.006401 
	C57.264061,69.312592 53.661846,65.576866 49.929607,61.537331 
	C46.416214,57.429028 43.032845,53.624538 39.594608,49.758354 
	C42.489853,48.495823 44.999779,47.639057 47.279270,46.368782 
	C62.270557,38.014702 62.132759,13.720163 45.830147,5.637864 
	C45.433941,5.220059 45.138138,5.111645 44.831505,5.132360 
	C44.863403,5.144989 44.802666,5.178246 44.813965,4.830584 
	C43.883511,3.321947 42.941757,2.160973 42.000000,0.999999 
	C162.553787,1.000000 283.107574,1.000000 403.830688,1.000000 
	C403.830688,25.999153 403.830688,50.999428 403.830688,76.000000 
	C393.918610,76.000000 383.927948,76.000000 373.656250,75.636154 
	C376.319855,74.842499 379.303406,74.589211 382.202209,73.951042 
	C392.466827,71.691322 399.373352,63.994183 399.915558,54.408688 
	C400.486145,44.321598 395.568390,37.836288 384.265289,34.284725 
	C378.417999,32.447441 372.340454,31.324394 366.534302,29.379148 
	C358.913574,26.825977 357.864990,22.460323 363.410889,16.337906 
	C367.203796,15.885905 370.582062,15.502925 374.220703,15.342701 
	C376.535767,16.885723 379.305206,17.741846 380.517761,19.609032 
	C385.038544,26.570429 391.477234,25.272114 398.140289,24.843664 
	C397.274750,14.919336 392.647064,8.162204 383.808716,4.550189 
	C375.799896,1.277168 367.602966,1.326923 359.404358,3.895191 
	C349.951355,6.856405 344.470398,13.867397 344.200500,23.228617 
	C343.926086,32.747169 348.783447,39.577896 358.435791,43.137634 
	C360.766327,43.997131 363.141266,44.754177 365.533020,45.425781 
	C369.837708,46.634533 374.395966,47.250202 378.404572,49.083725 
	C380.701569,50.134342 383.796936,53.341503 383.532837,55.136353 
	C383.174530,57.571655 380.322754,60.761532 377.870880,61.552677 
	C371.080933,63.743614 361.872314,63.262608 358.919250,53.574295 
	C355.296265,52.806580 351.666809,52.464195 347.659424,52.041817 
	C346.514618,52.013939 345.747650,52.066048 344.671082,52.052124 
	C343.993195,52.324581 343.624969,52.663067 343.219513,53.381203 
	C344.781250,64.915932 351.064240,71.734428 362.068329,74.220703 
	C364.394165,74.746201 366.690216,75.403450 369.000000,76.000000 
	C301.645782,76.000000 234.291550,76.000000 166.629395,75.639359 
	C178.243484,73.851120 187.573853,68.470444 193.806061,57.501186 
	C189.592560,54.626640 185.683945,51.960098 181.714722,49.252201 
	C180.748550,50.361614 180.082733,51.093525 179.452438,51.854839 
	C172.226959,60.582474 161.183182,62.916641 151.698349,57.714443 
	C142.621109,52.735802 138.555542,41.414303 142.092316,30.964266 
	C145.531921,20.801310 153.763779,16.314951 167.598175,17.459846 
	C169.571747,18.381136 171.293701,19.043268 173.238068,19.935345 
	C174.808273,21.169502 176.156067,22.173712 177.635147,23.507301 
	C178.843475,25.221430 179.920502,26.606178 181.249405,28.314766 
	C184.682297,25.800077 187.899780,23.443188 191.071442,21.052826 
	C191.025604,21.019356 191.080429,21.118732 191.404495,21.035624 
	C191.888153,19.940517 192.047729,18.928518 192.126251,17.583839 
	C190.593552,15.507154 189.141876,13.763149 187.595123,11.737677 
	C186.695297,10.898646 185.890564,10.341084 185.027466,9.556026 
	C184.771957,9.043754 184.500595,8.912891 183.965607,8.650331 
	C183.159149,8.068811 182.542114,7.772904 181.815155,7.314211 
	C181.705246,7.151426 181.318039,7.085242 181.101425,6.881739 
	C179.585861,6.129599 178.286911,5.580961 176.779694,4.775875 
	C175.722687,4.323613 174.873932,4.127800 173.714066,3.707041 
	C165.530258,1.251907 157.726547,1.436293 149.635529,4.152781 
	C132.103683,10.893006 123.769966,23.852602 124.873650,42.102200 
	C125.805870,57.516502 136.986694,70.084816 153.556778,74.378624 
	C155.388245,74.853203 157.186401,75.456436 159.000000,76.000000 
M115.844887,31.407991 
	C115.333923,31.462345 114.822952,31.516699 114.175949,31.553684 
	C114.175949,31.553684 114.049553,31.500471 113.301781,31.137995 
	C103.358727,31.137995 93.415672,31.137995 83.613579,31.137995 
	C83.233551,29.778412 83.030373,28.993517 82.794991,28.218403 
	C80.413216,20.374962 82.164787,17.933809 90.178230,17.934492 
	C99.603203,17.935293 109.028183,17.934681 118.922043,17.934681 
	C118.922043,13.269478 118.922043,9.155178 119.036255,4.409744 
	C118.609390,4.129253 118.182526,3.848762 116.859123,3.460357 
	C100.470604,3.460357 84.082085,3.460357 67.715195,3.460357 
	C67.715195,27.445965 67.715195,50.617687 67.715195,73.688889 
	C85.031235,73.688889 101.915344,73.688889 118.655373,73.688889 
	C118.655373,68.778320 118.655373,64.203812 118.655373,59.201393 
	C106.722168,59.201393 95.144547,59.201393 83.384689,59.201393 
	C83.384689,54.325901 83.384689,49.892818 83.384689,45.343327 
	C84.734680,45.169933 85.871239,45.023952 87.664452,45.031239 
	C88.108498,44.979763 88.552551,44.928288 89.661453,45.044357 
	C90.112503,44.992546 90.563553,44.940735 91.498451,45.013622 
	C91.498451,45.013622 91.981926,44.887466 92.909363,45.047184 
	C99.607407,44.993252 106.305458,44.939320 113.817001,45.030876 
	C117.262459,45.136909 115.992035,42.747852 116.132080,40.184963 
	C116.071251,38.788082 116.010414,37.391201 116.124969,35.203918 
	C116.053513,34.134289 115.982056,33.064663 115.844887,31.407991 
M303.117523,58.879932 
	C303.135864,54.274944 303.154236,49.669952 303.610138,45.031837 
	C303.610138,45.031837 304.018311,44.870758 304.498505,44.992245 
	C304.498505,44.992245 304.980438,44.877918 305.908203,45.038277 
	C314.274017,44.977016 322.639801,44.915760 331.884003,45.023872 
	C333.147400,45.023872 334.410828,45.023872 335.667786,45.023872 
	C335.667786,40.144897 335.667786,35.767914 335.667786,31.261606 
	C330.887329,31.261606 326.443115,31.261606 321.076141,31.102985 
	C315.718445,31.154337 310.360748,31.205688 304.299835,31.074797 
	C303.231781,28.709013 302.163727,26.343229 301.235901,23.268011 
	C302.492676,21.445494 303.749451,19.622978 305.921875,17.966242 
	C310.276062,17.908068 314.630249,17.849894 319.915192,17.911854 
	C325.606628,17.873228 331.298065,17.834602 337.513031,17.892080 
	C337.624695,17.591835 337.736389,17.291590 337.983307,16.101137 
	C337.947418,13.401392 337.911530,10.701647 338.040985,7.295674 
	C338.040985,6.049986 338.040985,4.804297 338.040985,3.531449 
	C320.908264,3.531449 304.205414,3.531449 287.138641,3.531449 
	C287.138641,5.164921 287.138641,6.594785 287.029633,8.817254 
	C287.074432,9.879258 287.119202,10.941262 287.029510,12.663338 
	C287.073944,13.107976 287.118378,13.552615 287.016174,14.924659 
	C287.064575,22.950195 287.112946,30.975733 287.025177,39.850208 
	C287.070679,41.566502 287.116180,43.282799 287.017303,45.824551 
	C287.065643,47.216827 287.113983,48.609108 287.028320,50.662643 
	C287.072754,51.108013 287.117188,51.553379 287.015930,52.910412 
	C287.064331,56.607033 287.112762,60.303654 287.024536,64.911156 
	C287.024536,67.841606 287.024536,70.772049 287.024536,73.694046 
	C304.547791,73.694046 321.535309,73.694046 338.586853,73.694046 
	C338.586853,70.596992 338.586853,67.802025 338.766174,64.266624 
	C338.712158,63.512421 338.658142,62.758217 338.774536,61.245831 
	C337.651123,60.650906 336.531036,59.547466 335.403748,59.540089 
	C324.679779,59.469906 313.954651,59.585667 303.178436,59.784798 
	C303.178436,59.784798 303.321625,59.755459 303.117523,58.879932 
M200.109406,8.919292 
	C200.109406,30.475071 200.109406,52.030849 200.109406,73.687668 
	C205.700287,73.687668 210.739059,73.687668 216.053528,73.687668 
	C216.053528,52.425625 216.031509,31.495502 216.080231,10.565546 
	C216.086624,7.817045 216.272919,4.559852 212.983276,4.184879 
	C208.769058,3.704517 204.425140,4.361897 200.137115,4.529035 
	C200.168961,5.022889 200.200806,5.516743 200.079971,6.668127 
	C200.142563,7.109572 200.205170,7.551017 200.109406,8.919292 
M239.860962,73.837013 
	C240.144089,72.522621 240.625778,71.215668 240.675385,69.892517 
	C240.872299,64.640579 240.934204,59.383583 241.928741,54.142807 
	C244.284943,54.078888 246.641129,54.014965 249.819153,54.134510 
	C251.215347,54.069923 252.611526,54.005337 254.500351,54.052670 
	C254.661255,54.002979 254.822144,53.953289 255.826416,54.023689 
	C269.012238,53.274673 278.543793,44.487679 279.924866,31.807743 
	C281.339417,18.820648 274.916290,6.917292 263.098816,4.981857 
	C250.660690,2.944775 237.798843,3.495032 224.965851,2.907620 
	C224.965851,26.462818 224.965851,48.731255 224.784225,71.879341 
	C225.759064,72.585091 226.706528,73.847801 227.713623,73.897301 
	C231.475784,74.082207 235.257492,73.869652 239.860962,73.837013 
z"/>
<path fill="#4C4A6C" opacity="1.000000" stroke="none" 
	d="
M369.399994,76.000000 
	C366.690216,75.403450 364.394165,74.746201 362.068329,74.220703 
	C351.064240,71.734428 344.781250,64.915932 343.475830,53.356361 
	C344.173126,52.673958 344.576935,52.396057 344.980713,52.118156 
	C345.747650,52.066048 346.514618,52.013939 347.880432,52.282131 
	C351.957123,53.068165 355.434967,53.533894 358.912781,53.999622 
	C361.872314,63.262608 371.080933,63.743614 377.870880,61.552677 
	C380.322754,60.761532 383.174530,57.571655 383.532837,55.136353 
	C383.796936,53.341503 380.701569,50.134342 378.404572,49.083725 
	C374.395966,47.250202 369.837708,46.634533 365.533020,45.425781 
	C363.141266,44.754177 360.766327,43.997131 358.435791,43.137634 
	C348.783447,39.577896 343.926086,32.747169 344.200500,23.228617 
	C344.470398,13.867397 349.951355,6.856405 359.404358,3.895191 
	C367.602966,1.326923 375.799896,1.277168 383.808716,4.550189 
	C392.647064,8.162204 397.274750,14.919336 398.140289,24.843664 
	C391.477234,25.272114 385.038544,26.570429 380.517761,19.609032 
	C379.305206,17.741846 376.535767,16.885723 374.169739,14.967733 
	C367.930664,10.705917 364.151917,11.414524 362.996246,16.406925 
	C357.864990,22.460323 358.913574,26.825977 366.534302,29.379148 
	C372.340454,31.324394 378.417999,32.447441 384.265289,34.284725 
	C395.568390,37.836288 400.486145,44.321598 399.915558,54.408688 
	C399.373352,63.994183 392.466827,71.691322 382.202209,73.951042 
	C379.303406,74.589211 376.319855,74.842499 373.187592,75.636154 
	C371.933319,76.000000 370.866669,76.000000 369.399994,76.000000 
M356.415405,55.484119 
	C356.415405,55.484119 356.523773,55.420815 356.415405,55.484119 
z"/>
<path fill="#4B496C" opacity="1.000000" stroke="none" 
	d="
M187.690216,12.019146 
	C189.141876,13.763149 190.593552,15.507154 191.829208,17.792267 
	C191.435608,19.261826 191.258026,20.190279 191.080429,21.118732 
	C191.080429,21.118732 191.025604,21.019356 190.677094,21.033257 
	C186.053665,21.757414 181.778763,22.467669 177.503845,23.177923 
	C176.156067,22.173712 174.808273,21.169502 173.212158,19.542538 
	C171.091400,18.346750 169.218979,17.773720 167.346558,17.200689 
	C153.763779,16.314951 145.531921,20.801310 142.092316,30.964266 
	C138.555542,41.414303 142.621109,52.735802 151.698349,57.714443 
	C161.183182,62.916641 172.226959,60.582474 179.452438,51.854839 
	C180.082733,51.093525 180.748550,50.361614 181.714722,49.252201 
	C185.683945,51.960098 189.592560,54.626640 193.806061,57.501186 
	C187.573853,68.470444 178.243484,73.851120 166.160736,75.639359 
	C163.958328,76.000000 161.916672,76.000000 159.437500,76.000000 
	C157.186401,75.456436 155.388245,74.853203 153.556778,74.378624 
	C136.986694,70.084816 125.805870,57.516502 124.873650,42.102200 
	C123.769966,23.852602 132.103683,10.893006 149.716827,4.500289 
	C150.667465,5.176869 151.189484,5.812050 151.685089,5.792078 
	C156.983551,5.578559 162.282516,5.326050 167.570969,4.941280 
	C169.735397,4.783804 171.874527,4.278861 174.025177,3.931987 
	C174.873932,4.127800 175.722687,4.323613 176.791138,5.165277 
	C177.692535,8.784931 178.709442,10.625469 181.318039,7.085242 
	C181.318039,7.085242 181.705246,7.151426 181.959732,7.655929 
	C182.861145,8.418935 183.508087,8.677439 184.155014,8.935943 
	C184.500595,8.912891 184.771957,9.043754 185.034103,9.896660 
	C185.962799,10.982909 186.826508,11.501029 187.690216,12.019146 
z"/>
<path fill="#F8FBFD" opacity="1.000000" stroke="none" 
	d="
M7.999217,74.185669 
	C8.268463,74.629730 8.537709,75.073784 8.903478,75.758926 
	C6.342776,76.000000 3.685552,76.000000 1.021246,76.000000 
	C1.014164,51.097973 1.014164,26.195934 1.014164,1.000000 
	C14.352792,1.000000 27.707737,1.000000 41.531342,0.999999 
	C42.941757,2.160973 43.883511,3.321947 44.513054,4.834135 
	C43.802292,5.172708 43.403744,5.160066 42.656967,4.952794 
	C29.649044,4.112982 16.989353,3.467802 4.139538,2.812932 
	C4.139538,7.391327 4.139538,10.700831 4.075459,14.382843 
	C4.052989,15.507710 4.094598,16.260071 4.064361,17.475483 
	C4.042020,24.619150 4.091524,31.299765 4.076490,38.353615 
	C4.054535,39.480640 4.097119,40.234436 4.068456,41.453194 
	C3.997209,52.569153 3.997209,63.220139 3.997209,73.839264 
	C5.708839,73.987419 6.854028,74.086548 7.999217,74.185669 
z"/>
<path fill="#4A486C" opacity="1.000000" stroke="none" 
	d="
M118.922043,5.040877 
	C118.922043,9.155178 118.922043,13.269478 118.922043,17.934681 
	C109.028183,17.934681 99.603203,17.935293 90.178230,17.934492 
	C82.164787,17.933809 80.413216,20.374962 82.794991,28.218403 
	C83.030373,28.993517 83.233551,29.778412 83.613579,31.137995 
	C93.415672,31.137995 103.358727,31.137995 113.648193,31.740570 
	C114.646255,33.560204 115.297920,34.777264 115.949585,35.994320 
	C116.010414,37.391201 116.071251,38.788082 115.711914,40.643745 
	C114.528999,42.363483 113.766251,43.624435 113.003502,44.885387 
	C106.305458,44.939320 99.607407,44.993252 92.355652,44.818459 
	C91.539505,44.689468 91.277054,44.789200 91.014603,44.888924 
	C90.563553,44.940735 90.112503,44.992546 89.286575,44.676537 
	C88.593086,44.009457 88.274475,43.710201 87.955872,43.410950 
	C87.639854,43.899960 87.323830,44.388969 87.007805,44.877975 
	C85.871239,45.023952 84.734680,45.169933 83.384689,45.343327 
	C83.384689,49.892818 83.384689,54.325901 83.384689,59.201393 
	C95.144547,59.201393 106.722168,59.201393 118.655373,59.201393 
	C118.655373,64.203812 118.655373,68.778320 118.655373,73.688889 
	C101.915344,73.688889 85.031235,73.688889 67.715195,73.688889 
	C67.715195,50.617687 67.715195,27.445965 67.715195,3.460357 
	C84.082085,3.460357 100.470604,3.460357 117.394180,3.735797 
	C118.260178,4.354451 118.591110,4.697664 118.922043,5.040877 
z"/>
<path fill="#4A486D" opacity="1.000000" stroke="none" 
	d="
M4.136207,17.012430 
	C4.094598,16.260071 4.052989,15.507710 4.438493,14.285768 
	C5.235870,13.140536 5.940214,12.455570 5.921675,11.790764 
	C5.809206,7.757730 7.346062,6.356621 11.665377,5.767776 
	C20.790174,4.523810 29.644743,4.886697 38.583916,6.805202 
	C39.879406,7.083238 41.522797,5.740274 43.005196,5.147425 
	C43.403744,5.160066 43.802292,5.172708 44.501755,5.181798 
	C44.802666,5.178246 44.863403,5.144989 44.945499,5.359327 
	C45.342823,5.659362 45.658054,5.745059 45.973282,5.830755 
	C62.132759,13.720163 62.270557,38.014702 47.279270,46.368782 
	C44.999779,47.639057 42.489853,48.495823 39.594608,49.758354 
	C43.032845,53.624538 46.416214,57.429028 49.917446,61.926270 
	C50.140594,63.265747 50.171772,63.935562 50.364803,64.554939 
	C50.990749,66.563408 51.676029,68.553391 52.338463,70.550491 
	C49.818027,71.018272 47.240921,72.031403 44.795502,71.777290 
	C42.916901,71.582077 41.229256,69.745979 39.410416,68.721779 
	C37.699856,67.758560 35.928692,66.902969 34.184196,66.000023 
	C29.674919,60.986092 25.165642,55.972160 20.241617,50.497070 
	C20.136600,52.156242 20.068172,53.237320 19.580639,54.742996 
	C17.108545,57.681541 17.369694,59.954552 19.872280,61.994198 
	C19.910763,64.036682 19.949247,66.079163 19.580421,68.629745 
	C15.870560,70.317192 12.628645,71.855499 9.224024,72.430641 
	C8.341535,72.579727 6.007289,69.748657 5.950983,68.226860 
	C5.670490,60.646072 6.027977,53.043823 5.909567,45.453053 
	C5.886213,43.955940 4.758246,42.476055 4.139703,40.988228 
	C4.097119,40.234436 4.054535,39.480640 4.338683,38.035046 
	C4.489012,30.566305 4.312610,23.789368 4.136207,17.012430 
M19.322424,20.499258 
	C15.581074,26.367567 15.957439,33.901459 21.057436,36.952145 
	C26.707834,36.272507 32.769581,36.646099 37.902470,34.641411 
	C44.048004,32.241219 44.016987,22.042570 37.917526,19.991728 
	C32.525570,18.178772 26.337006,18.722456 20.493324,18.326456 
	C20.318674,18.314621 20.067480,19.432341 19.322424,20.499258 
z"/>
<path fill="#4C4A6D" opacity="1.000000" stroke="none" 
	d="
M241.046143,54.128460 
	C240.934204,59.383583 240.872299,64.640579 240.675385,69.892517 
	C240.625778,71.215668 240.144089,72.522621 239.550049,73.534882 
	C238.757141,72.808258 238.306274,72.060097 237.788254,72.010300 
	C233.521179,71.600121 229.241623,71.319550 224.965851,70.999687 
	C224.965851,48.731255 224.965851,26.462818 224.965851,2.907620 
	C237.798843,3.495032 250.660690,2.944775 263.098816,4.981857 
	C274.916290,6.917292 281.339417,18.820648 279.924866,31.807743 
	C278.543793,44.487679 269.012238,53.274673 255.311508,53.811424 
	C254.533646,53.713024 254.270676,53.826885 254.007721,53.940746 
	C252.611526,54.005337 251.215347,54.069923 249.321198,53.665962 
	C245.994278,51.531384 243.241806,50.504425 241.046143,54.128460 
M248.380417,39.726830 
	C250.845001,39.516827 253.345825,39.503342 255.766739,39.056641 
	C261.102875,38.072021 263.990814,34.191544 263.988922,28.373503 
	C263.987244,23.226477 261.210785,19.411848 255.957596,18.641159 
	C251.119095,17.931307 246.155380,18.075087 241.126251,17.837139 
	C241.126251,25.456081 241.126251,32.428539 241.126251,39.725250 
	C243.521225,39.725250 245.487274,39.725250 248.380417,39.726830 
z"/>
<path fill="#49476C" opacity="1.000000" stroke="none" 
	d="
M338.604126,62.004013 
	C338.658142,62.758217 338.712158,63.512421 338.337799,64.759430 
	C336.112671,67.559601 338.142700,72.347755 332.300354,72.136436 
	C319.720306,71.681419 307.112396,71.981544 294.515961,72.005936 
	C291.092133,72.012558 288.663605,71.191956 288.899597,66.974640 
	C288.953125,66.018608 287.773315,64.993553 287.161194,64.000275 
	C287.112762,60.303654 287.064331,56.607033 287.368317,52.410343 
	C288.013214,51.592670 288.305725,51.275070 288.598236,50.957474 
	C288.119598,50.638779 287.640961,50.320084 287.162323,50.001389 
	C287.113983,48.609108 287.065643,47.216827 287.413391,45.351250 
	C290.568542,42.590961 290.479126,40.618111 287.161377,39.001270 
	C287.112946,30.975733 287.064575,22.950195 287.368744,14.416954 
	C288.013641,13.592092 288.305939,13.274933 288.598267,12.957774 
	C288.120178,12.639605 287.642090,12.321436 287.164001,12.003267 
	C287.119202,10.941262 287.074432,9.879258 287.432495,8.325170 
	C290.134064,6.877021 292.415497,5.146233 294.734467,5.094360 
	C307.045624,4.818976 319.369354,4.824455 331.680481,5.101280 
	C333.766205,5.148179 335.811584,6.989585 337.875610,8.001905 
	C337.911530,10.701647 337.947418,13.401392 337.737000,16.639360 
	C337.259521,17.331749 337.092468,17.537880 336.989502,17.795975 
	C331.298065,17.834602 325.606628,17.873228 319.125061,17.605196 
	C313.892029,17.465845 309.449127,17.633154 305.006226,17.800461 
	C303.749451,19.622978 302.492676,21.445494 300.891663,23.528669 
	C300.031647,23.526049 299.515808,23.262770 298.946228,22.864584 
	C298.809296,22.681276 298.726166,22.632874 298.643005,22.584469 
	C298.762024,22.723110 298.881012,22.861752 299.000488,23.380260 
	C299.603790,26.054411 299.901520,28.508039 300.972107,30.558035 
	C301.355621,31.292444 303.605194,31.052353 305.003052,31.257040 
	C310.360748,31.205688 315.718445,31.154337 321.647095,31.539101 
	C324.581787,32.242702 326.959686,32.424782 329.303314,32.813511 
	C330.484955,33.009502 331.604401,33.580143 332.751984,33.981377 
	C330.922943,37.405479 334.331146,41.670753 331.005615,44.854500 
	C322.639801,44.915760 314.274017,44.977016 305.355835,44.809746 
	C304.541718,44.677731 304.280029,44.774246 304.018311,44.870758 
	C304.018311,44.870758 303.610138,45.031837 302.988708,45.074432 
	C299.712616,47.428150 299.001007,55.344944 301.255768,58.908752 
	C301.580109,59.421448 302.615356,59.484379 303.321625,59.755455 
	C303.321625,59.755459 303.178436,59.784798 303.199280,60.143784 
	C304.789154,61.001698 306.352936,61.912422 307.928162,61.932716 
	C318.152100,62.064484 328.378510,62.002529 338.604126,62.004013 
z"/>
<path fill="#49466C" opacity="1.000000" stroke="none" 
	d="
M200.267776,7.992462 
	C200.205170,7.551017 200.142563,7.109572 200.588638,6.336581 
	C201.763000,6.003145 202.455307,5.880120 203.089920,6.019625 
	C206.439926,6.756034 210.147522,6.947548 212.930511,8.642535 
	C214.025436,9.309401 213.038574,13.386761 213.008789,15.911137 
	C212.995056,17.075975 213.001511,18.241072 213.001480,19.406052 
	C213.001099,34.717281 212.894638,50.029743 213.072388,65.338913 
	C213.119781,69.420860 211.829208,71.883675 207.636307,71.928848 
	C203.126709,71.977440 202.973053,68.695236 202.981308,65.301704 
	C203.021759,48.659164 203.111191,32.014896 202.877121,15.375546 
	C202.842331,12.902772 201.178146,10.452919 200.267776,7.992462 
z"/>
<path fill="#4D4B67" opacity="1.000000" stroke="none" 
	d="
M200.188599,8.455877 
	C201.178146,10.452919 202.842331,12.902772 202.877121,15.375546 
	C203.111191,32.014896 203.021759,48.659164 202.981308,65.301704 
	C202.973053,68.695236 203.126709,71.977440 207.636307,71.928848 
	C211.829208,71.883675 213.119781,69.420860 213.072388,65.338913 
	C212.894638,50.029743 213.001099,34.717281 213.001480,19.406052 
	C213.001511,18.241072 212.995056,17.075975 213.008789,15.911137 
	C213.038574,13.386761 214.025436,9.309401 212.930511,8.642535 
	C210.147522,6.947548 206.439926,6.756034 203.089920,6.019625 
	C202.455307,5.880120 201.763000,6.003145 200.664978,6.007816 
	C200.200806,5.516743 200.168961,5.022889 200.137115,4.529035 
	C204.425140,4.361897 208.769058,3.704517 212.983276,4.184879 
	C216.272919,4.559852 216.086624,7.817045 216.080231,10.565546 
	C216.031509,31.495502 216.053528,52.425625 216.053528,73.687668 
	C210.739059,73.687668 205.700287,73.687668 200.109406,73.687668 
	C200.109406,52.030849 200.109406,30.475071 200.188599,8.455877 
z"/>
<path fill="#4A4860" opacity="1.000000" stroke="none" 
	d="
M287.092865,64.455719 
	C287.773315,64.993553 288.953125,66.018608 288.899597,66.974640 
	C288.663605,71.191956 291.092133,72.012558 294.515961,72.005936 
	C307.112396,71.981544 319.720306,71.681419 332.300354,72.136436 
	C338.142700,72.347755 336.112671,67.559601 338.248138,65.129654 
	C338.586853,67.802025 338.586853,70.596992 338.586853,73.694046 
	C321.535309,73.694046 304.547791,73.694046 287.024536,73.694046 
	C287.024536,70.772049 287.024536,67.841606 287.092865,64.455719 
z"/>
<path fill="#606077" opacity="1.000000" stroke="none" 
	d="
M337.958313,7.648792 
	C335.811584,6.989585 333.766205,5.148179 331.680481,5.101280 
	C319.369354,4.824455 307.045624,4.818976 294.734467,5.094360 
	C292.415497,5.146233 290.134064,6.877021 287.487000,7.928867 
	C287.138641,6.594785 287.138641,5.164921 287.138641,3.531449 
	C304.205414,3.531449 320.908264,3.531449 338.040985,3.531449 
	C338.040985,4.804297 338.040985,6.049986 337.958313,7.648792 
z"/>
<path fill="#494862" opacity="1.000000" stroke="none" 
	d="
M338.689331,61.624924 
	C328.378510,62.002529 318.152100,62.064484 307.928162,61.932716 
	C306.352936,61.912422 304.789154,61.001698 303.224976,60.075371 
	C313.954651,59.585667 324.679779,59.469906 335.403748,59.540089 
	C336.531036,59.547466 337.651123,60.650906 338.689331,61.624924 
z"/>
<path fill="#4E4C64" opacity="1.000000" stroke="none" 
	d="
M34.297108,66.307953 
	C35.928692,66.902969 37.699856,67.758560 39.410416,68.721779 
	C41.229256,69.745979 42.916901,71.582077 44.795502,71.777290 
	C47.240921,72.031403 49.818027,71.018272 52.338463,70.550491 
	C51.676029,68.553391 50.990749,66.563408 50.364803,64.554939 
	C50.171772,63.935562 50.140594,63.265747 50.047470,62.230087 
	C53.661846,65.576866 57.264061,69.312592 61.790115,74.006401 
	C54.444710,74.006401 48.382519,74.833710 42.724716,73.679222 
	C39.602715,73.042175 37.159332,69.079391 34.297108,66.307953 
z"/>
<path fill="#525169" opacity="1.000000" stroke="none" 
	d="
M4.068456,41.453194 
	C4.758246,42.476055 5.886213,43.955940 5.909567,45.453053 
	C6.027977,53.043823 5.670490,60.646072 5.950983,68.226860 
	C6.007289,69.748657 8.341535,72.579727 9.224024,72.430641 
	C12.628645,71.855499 15.870560,70.317192 19.516779,69.063324 
	C19.860445,70.444679 19.860445,71.900558 19.860445,74.058990 
	C16.236914,74.058990 12.577556,74.058990 8.458707,74.122330 
	C6.854028,74.086548 5.708839,73.987419 3.997209,73.839264 
	C3.997209,63.220139 3.997209,52.569153 4.068456,41.453194 
z"/>
<path fill="#4B4A65" opacity="1.000000" stroke="none" 
	d="
M331.444824,44.939186 
	C334.331146,41.670753 330.922943,37.405479 332.751984,33.981377 
	C331.604401,33.580143 330.484955,33.009502 329.303314,32.813511 
	C326.959686,32.424782 324.581787,32.242702 322.108490,31.618412 
	C326.443115,31.261606 330.887329,31.261606 335.667786,31.261606 
	C335.667786,35.767914 335.667786,40.144897 335.667786,45.023872 
	C334.410828,45.023872 333.147400,45.023872 331.444824,44.939186 
z"/>
<path fill="#53526B" opacity="1.000000" stroke="none" 
	d="
M173.714066,3.707041 
	C171.874527,4.278861 169.735397,4.783804 167.570969,4.941280 
	C162.282516,5.326050 156.983551,5.578559 151.685089,5.792078 
	C151.189484,5.812050 150.667465,5.176869 150.076416,4.498368 
	C157.726547,1.436293 165.530258,1.251907 173.714066,3.707041 
z"/>
<path fill="#494862" opacity="1.000000" stroke="none" 
	d="
M303.219574,59.317696 
	C302.615356,59.484379 301.580109,59.421448 301.255768,58.908752 
	C299.001007,55.344944 299.712616,47.428150 302.769958,45.090996 
	C303.154236,49.669952 303.135864,54.274944 303.219574,59.317696 
z"/>
<path fill="#4A4762" opacity="1.000000" stroke="none" 
	d="
M224.875031,71.439514 
	C229.241623,71.319550 233.521179,71.600121 237.788254,72.010300 
	C238.306274,72.060097 238.757141,72.808258 239.135498,73.519470 
	C235.257492,73.869652 231.475784,74.082207 227.713623,73.897301 
	C226.706528,73.847801 225.759064,72.585091 224.875031,71.439514 
z"/>
<path fill="#53526B" opacity="1.000000" stroke="none" 
	d="
M177.635147,23.507301 
	C181.778763,22.467669 186.053665,21.757414 190.722931,21.066729 
	C187.899780,23.443188 184.682297,25.800077 181.249405,28.314766 
	C179.920502,26.606178 178.843475,25.221430 177.635147,23.507301 
z"/>
<path fill="#474761" opacity="1.000000" stroke="none" 
	d="
M363.410889,16.337906 
	C364.151917,11.414524 367.930664,10.705917 373.909393,14.744976 
	C370.582062,15.502925 367.203796,15.885905 363.410889,16.337906 
z"/>
<path fill="#4B4A65" opacity="1.000000" stroke="none" 
	d="
M299.000000,22.999485 
	C299.515808,23.262770 300.031647,23.526049 300.821533,23.883387 
	C302.163727,26.343229 303.231781,28.709013 304.651428,31.165918 
	C303.605194,31.052353 301.355621,31.292444 300.972107,30.558035 
	C299.901520,28.508039 299.603790,26.054411 299.000488,23.380062 
	C299.000000,23.000000 299.000000,22.999483 299.000000,22.999485 
z"/>
<path fill="#4A475F" opacity="1.000000" stroke="none" 
	d="
M358.919250,53.574295 
	C355.434967,53.533894 351.957123,53.068165 348.258301,52.362122 
	C351.666809,52.464195 355.296265,52.806580 358.919250,53.574295 
z"/>
<path fill="#474760" opacity="1.000000" stroke="none" 
	d="
M241.487442,54.135635 
	C243.241806,50.504425 245.994278,51.531384 248.910294,53.574230 
	C246.641129,54.014965 244.284943,54.078888 241.487442,54.135635 
z"/>
<path fill="#606077" opacity="1.000000" stroke="none" 
	d="
M305.464050,17.883352 
	C309.449127,17.633154 313.892029,17.465845 318.659668,17.545128 
	C314.630249,17.849894 310.276062,17.908068 305.464050,17.883352 
z"/>
<path fill="#4A4860" opacity="1.000000" stroke="none" 
	d="
M287.093262,39.425739 
	C290.479126,40.618111 290.568542,42.590961 287.485535,44.938522 
	C287.116180,43.282799 287.070679,41.566502 287.093262,39.425739 
z"/>
<path fill="#53526B" opacity="1.000000" stroke="none" 
	d="
M181.101425,6.881739 
	C178.709442,10.625469 177.692535,8.784931 176.999405,5.421726 
	C178.286911,5.580961 179.585861,6.129599 181.101425,6.881739 
z"/>
<path fill="#525169" opacity="1.000000" stroke="none" 
	d="
M19.941704,61.560745 
	C17.369694,59.954552 17.108545,57.681541 19.511496,55.079762 
	C19.911350,57.037048 19.961241,59.082169 19.941704,61.560745 
z"/>
<path fill="#484763" opacity="1.000000" stroke="none" 
	d="
M113.410248,44.958130 
	C113.766251,43.624435 114.528999,42.363483 115.618942,41.054596 
	C115.992035,42.747852 117.262459,45.136909 113.410248,44.958130 
z"/>
<path fill="#53526B" opacity="1.000000" stroke="none" 
	d="
M167.598175,17.459846 
	C169.218979,17.773720 171.091400,18.346750 172.989746,19.312592 
	C171.293701,19.043268 169.571747,18.381136 167.598175,17.459846 
z"/>
<path fill="#484763" opacity="1.000000" stroke="none" 
	d="
M116.037277,35.599121 
	C115.297920,34.777264 114.646255,33.560204 114.022079,31.921806 
	C114.049553,31.500471 114.175949,31.553684 114.635086,31.704697 
	C115.366348,31.902147 115.638474,31.948589 115.910606,31.995033 
	C115.982056,33.064663 116.053513,34.134289 116.037277,35.599121 
z"/>
<path fill="#53526B" opacity="1.000000" stroke="none" 
	d="
M191.404495,21.035624 
	C191.258026,20.190279 191.435608,19.261826 191.910248,18.124947 
	C192.047729,18.928518 191.888153,19.940517 191.404495,21.035624 
z"/>
<path fill="#53526B" opacity="1.000000" stroke="none" 
	d="
M187.595123,11.737679 
	C186.826508,11.501029 185.962799,10.982909 185.092468,10.124155 
	C185.890564,10.341084 186.695297,10.898646 187.595123,11.737679 
z"/>
<path fill="#484763" opacity="1.000000" stroke="none" 
	d="
M87.336128,44.954605 
	C87.323830,44.388969 87.639854,43.899960 87.955872,43.410950 
	C88.274475,43.710201 88.593086,44.009457 88.954147,44.592762 
	C88.552551,44.928288 88.108498,44.979763 87.336128,44.954605 
z"/>
<path fill="#4A4860" opacity="1.000000" stroke="none" 
	d="
M287.096741,12.333303 
	C287.642090,12.321436 288.120178,12.639605 288.598267,12.957774 
	C288.305939,13.274933 288.013641,13.592092 287.442078,13.953253 
	C287.118378,13.552615 287.073944,13.107976 287.096741,12.333303 
z"/>
<path fill="#4A4860" opacity="1.000000" stroke="none" 
	d="
M287.095337,50.332016 
	C287.640961,50.320084 288.119598,50.638779 288.598236,50.957474 
	C288.305725,51.275070 288.013214,51.592670 287.441162,51.954510 
	C287.117188,51.553379 287.072754,51.108013 287.095337,50.332016 
z"/>
<path fill="#8F919F" opacity="1.000000" stroke="none" 
	d="
M118.979149,4.725310 
	C118.591110,4.697664 118.260178,4.354451 117.842453,3.789754 
	C118.182526,3.848762 118.609390,4.129253 118.979149,4.725310 
z"/>
<path fill="#53526B" opacity="1.000000" stroke="none" 
	d="
M183.965607,8.650331 
	C183.508087,8.677439 182.861145,8.418935 182.069641,7.818714 
	C182.542114,7.772904 183.159149,8.068811 183.965607,8.650331 
z"/>
<path fill="#4A475F" opacity="1.000000" stroke="none" 
	d="
M344.671082,52.052124 
	C344.576935,52.396057 344.173126,52.673958 343.513062,52.976704 
	C343.624969,52.663067 343.993195,52.324581 344.671082,52.052124 
z"/>
<path fill="#474760" opacity="1.000000" stroke="none" 
	d="
M254.254028,53.996704 
	C254.270676,53.826885 254.533646,53.713024 254.889816,53.751381 
	C254.822144,53.953289 254.661255,54.002979 254.254028,53.996704 
z"/>
<path fill="#494862" opacity="1.000000" stroke="none" 
	d="
M304.258423,44.931503 
	C304.280029,44.774246 304.541718,44.677731 304.891937,44.729568 
	C304.980438,44.877918 304.498505,44.992245 304.258423,44.931503 
z"/>
<path fill="#484763" opacity="1.000000" stroke="none" 
	d="
M91.256531,44.951275 
	C91.277054,44.789200 91.539505,44.689468 91.891937,44.738602 
	C91.981926,44.887466 91.498451,45.013622 91.256531,44.951275 
z"/>
<path fill="#4A486C" opacity="1.000000" stroke="none" 
	d="
M115.877747,31.701511 
	C115.638474,31.948589 115.366348,31.902147 114.703110,31.713379 
	C114.822952,31.516699 115.333923,31.462345 115.877747,31.701511 
z"/>
<path fill="#F8FBFD" opacity="1.000000" stroke="none" 
	d="
M45.830147,5.637864 
	C45.658054,5.745059 45.342823,5.659362 44.913601,5.346699 
	C45.138138,5.111645 45.433941,5.220059 45.830147,5.637864 
z"/>
<path fill="#606077" opacity="1.000000" stroke="none" 
	d="
M337.251282,17.844028 
	C337.092468,17.537880 337.259521,17.331749 337.669373,17.084465 
	C337.736389,17.291590 337.624695,17.591835 337.251282,17.844028 
z"/>
<path fill="#4A475F" opacity="1.000000" stroke="none" 
	d="
M356.469604,55.452469 
	C356.523773,55.420815 356.415405,55.484119 356.469604,55.452469 
z"/>
<path fill="#525169" opacity="1.000000" stroke="none" 
	d="
M42.656967,4.952794 
	C41.522797,5.740274 39.879406,7.083238 38.583916,6.805202 
	C29.644743,4.886697 20.790174,4.523810 11.665377,5.767776 
	C7.346062,6.356621 5.809206,7.757730 5.921675,11.790764 
	C5.940214,12.455570 5.235870,13.140536 4.502572,13.913260 
	C4.139538,10.700831 4.139538,7.391327 4.139538,2.812932 
	C16.989353,3.467802 29.649044,4.112982 42.656967,4.952794 
z"/>
<path fill="#525169" opacity="1.000000" stroke="none" 
	d="
M4.064361,17.475483 
	C4.312610,23.789368 4.489012,30.566305 4.403222,37.661812 
	C4.091524,31.299765 4.042020,24.619150 4.064361,17.475483 
z"/>
<path fill="#FAFAFB" opacity="1.000000" stroke="none" 
	d="
M19.851974,20.023418 
	C20.067480,19.432341 20.318674,18.314621 20.493324,18.326456 
	C26.337006,18.722456 32.525570,18.178772 37.917526,19.991728 
	C44.016987,22.042570 44.048004,32.241219 37.902470,34.641411 
	C32.769581,36.646099 26.707834,36.272507 20.545452,36.485489 
	C19.972971,30.687029 19.912472,25.355223 19.851974,20.023418 
z"/>
<path fill="#494660" opacity="1.000000" stroke="none" 
	d="
M19.587198,20.261337 
	C19.912472,25.355223 19.972971,30.687029 20.088593,36.479111 
	C15.957439,33.901459 15.581074,26.367567 19.587198,20.261337 
z"/>
<path fill="#FAFAFB" opacity="1.000000" stroke="none" 
	d="
M247.916870,39.726040 
	C245.487274,39.725250 243.521225,39.725250 241.126251,39.725250 
	C241.126251,32.428539 241.126251,25.456081 241.126251,17.837139 
	C246.155380,18.075087 251.119095,17.931307 255.957596,18.641159 
	C261.210785,19.411848 263.987244,23.226477 263.988922,28.373503 
	C263.990814,34.191544 261.102875,38.072021 255.766739,39.056641 
	C253.345825,39.503342 250.845001,39.516827 247.916870,39.726040 
z"/>
<path fill="#4B4A65" opacity="1.000000" stroke="none" 
	d="
M299.000000,23.000196 
	C298.881012,22.861752 298.762024,22.723110 298.643005,22.584469 
	C298.726166,22.632874 298.809296,22.681276 298.946228,22.864582 
	C299.000000,22.999483 299.000000,23.000000 299.000000,23.000196 
z"/>
</svg>